# xmcd CD database file
#
# Track frame offsets:
#	150
#	25500
#	41600
#	60125
#	76775
#	95250
#	122275
#	144300
#	165488
#
# Disc length: 2521 seconds
#
# Revision: 0
# Processed by: cddbd v1.5.2PL0 Copyright (c) Steve Scherf et al.
# Submitted via: CDex 1.70beta2
#
DISCID=5409d709
DTITLE=meg - Serpent
DYEAR=2008
DGENRE=Jazz
TTITLE0=（I Can Recall） Spain
TTITLE1=You’d Be So Nice To Come Home To
TTITLE2=Little Green Bag
TTITLE3=Cheek To Cheek
TTITLE4=My Favorite Things
TTITLE5=The Nearness Of You
TTITLE6=Lupin the Third
TTITLE7=Like a Christmas Rose
TTITLE8=A Night In Tunisia
EXTD=YEAR: 2008
EXTT0=
EXTT1=
EXTT2=
EXTT3=
EXTT4=
EXTT5=
EXTT6=
EXTT7=
EXTT8=
PLAYORDER=
